<!-- ./public/assets/images/minab-logo.svg -->
<svg width="200" height="80" viewBox="0 0 200 80" fill="none" xmlns="http://www.w3.org/2000/svg">
  <title>Minab IT Solutions Logo</title>
  <defs>
    <style>
      .minab-purple { fill: #4a148c; }
      .minab-gray { fill: #5a6270; }
    </style>
  </defs>
  
  <g id="Minab-Symbol">
    <path class="minab-purple" d="M40 80C17.9086 80 0 62.0914 0 40C0 17.9086 17.9086 0 40 0C62.0914 0 80 17.9086 80 40C80 62.0914 62.0914 80 40 80ZM40 75C59.33 75 75 59.33 75 40C75 20.67 59.33 5 40 5C20.67 5 5 20.67 5 40C5 59.33 20.67 75 40 75Z"/>
    <path class="minab-purple" d="M32 15h8v50h-8z"/>
    <path class="minab-purple" d="M50 15h8v50h-8z"/>
    <path class="minab-purple" d="M25 40c0-8.284 6.716-15 15-15s15 6.716 15 15-6.716 15-15 15-15-6.716-15-15zm5 0c0-5.523 4.477-10 10-10s10 4.477 10 10-4.477 10-10 10-10-4.477-10-10z"/>
  </g>
  
  <g id="Minab-Text" transform="translate(90, 25)">
    <text class="minab-purple" x="0" y="0" font-family="monospace, sans-serif" font-size="20" letter-spacing="4">MINAB</text>
    <text class="minab-gray" x="0" y="30" font-family="monospace, sans-serif" font-size="12" letter-spacing="2">IT SOLUTIONS</text>
  </g>
</svg>